<svg width="20" height="21" viewBox="0 0 20 21" fill="none" xmlns="http://www.w3.org/2000/svg">
<g id="arrow_back_ios_new">
<mask id="mask0_66_4489" style="mask-type:alpha" maskUnits="userSpaceOnUse" x="0" y="0" width="20" height="21">
<rect id="Bounding box" y="0.125" width="20" height="20" fill="#D9D9D9"/>
</mask>
<g mask="url(#mask0_66_4489)">
<path id="arrow_back_ios_new_2" d="M7.65398 10.125L13.9313 16.4023C14.0968 16.5679 14.1775 16.7628 14.1734 16.9871C14.1691 17.2115 14.0841 17.4065 13.9186 17.5721C13.7529 17.7376 13.5579 17.8204 13.3336 17.8204C13.1093 17.8204 12.9143 17.7376 12.7486 17.5721L6.35607 11.1923C6.20537 11.0416 6.09371 10.8728 6.02107 10.6858C5.94843 10.4989 5.91211 10.312 5.91211 10.125C5.91211 9.93807 5.94843 9.75112 6.02107 9.56418C6.09371 9.37723 6.20537 9.20842 6.35607 9.05772L12.7486 2.66501C12.9143 2.49946 13.1114 2.41883 13.34 2.42314C13.5686 2.42744 13.7657 2.51237 13.9313 2.67793C14.0968 2.84348 14.1796 3.03848 14.1796 3.26293C14.1796 3.48723 14.0968 3.68217 13.9313 3.84772L7.65398 10.125Z" fill="#858585"/>
</g>
</g>
</svg>
