<svg width="20" height="21" viewBox="0 0 20 21" fill="none" xmlns="http://www.w3.org/2000/svg">
<g id="arrow_forward_ios">
<mask id="mask0_66_4493" style="mask-type:alpha" maskUnits="userSpaceOnUse" x="0" y="0" width="20" height="21">
<rect id="Bounding box" y="0.125" width="20" height="20" fill="#D9D9D9"/>
</mask>
<g mask="url(#mask0_66_4493)">
<path id="arrow_forward_ios_2" d="M12.3592 10.125L6.08188 3.84773C5.91633 3.68217 5.8357 3.48509 5.84001 3.25648C5.84431 3.02787 5.92924 2.83071 6.0948 2.66502C6.26035 2.49946 6.45744 2.41669 6.68605 2.41669C6.91466 2.41669 7.11181 2.49946 7.27751 2.66502L13.6573 9.05773C13.8079 9.20842 13.9195 9.37724 13.9921 9.56419C14.0649 9.75113 14.1013 9.93808 14.1013 10.125C14.1013 10.312 14.0649 10.4989 13.9921 10.6859C13.9195 10.8728 13.8079 11.0416 13.6573 11.1923L7.26459 17.585C7.09904 17.7506 6.9041 17.8312 6.6798 17.8269C6.45535 17.8226 6.26035 17.7377 6.0948 17.5721C5.92924 17.4065 5.84647 17.2095 5.84647 16.9809C5.84647 16.7522 5.92924 16.5551 6.0948 16.3894L12.3592 10.125Z" fill="#858585"/>
</g>
</g>
</svg>
